<svg xmlns="http://www.w3.org/2000/svg" width="1280" height="720"><rect width="1280" height="720" fill="#F2F0EB"/><rect x="720" y="135" width="380" height="410" rx="34" fill="#FFFFFF" stroke="#D9D4CA"/><circle cx="910" cy="340" r="78" fill="#D4E9E2"/><circle cx="910" cy="340" r="35" fill="#00754A" opacity="0.75"/><rect x="585" y="160" width="170" height="96" rx="18" fill="#fff" stroke="#D9D4CA"/><rect x="607" y="184" width="82" height="12" rx="6" fill="#1E3932" opacity="0.18"/><rect x="607" y="210" width="116" height="10" rx="5" fill="#00754A" opacity="0.18"/><path d="M707 229 C705 198 737 197 735 229 Z" fill="#80634E" opacity="0.8"/><rect x="610" y="455" width="170" height="96" rx="18" fill="#fff" stroke="#D9D4CA"/><rect x="632" y="479" width="82" height="12" rx="6" fill="#1E3932" opacity="0.18"/><rect x="632" y="505" width="116" height="10" rx="5" fill="#00754A" opacity="0.18"/><path d="M732 524 C730 493 762 492 760 524 Z" fill="#80634E" opacity="0.8"/><rect x="1015" y="165" width="170" height="96" rx="18" fill="#fff" stroke="#D9D4CA"/><rect x="1037" y="189" width="82" height="12" rx="6" fill="#1E3932" opacity="0.18"/><rect x="1037" y="215" width="116" height="10" rx="5" fill="#00754A" opacity="0.18"/><path d="M1137 234 C1135 203 1167 202 1165 234 Z" fill="#80634E" opacity="0.8"/><rect x="1040" y="470" width="170" height="96" rx="18" fill="#fff" stroke="#D9D4CA"/><rect x="1062" y="494" width="82" height="12" rx="6" fill="#1E3932" opacity="0.18"/><rect x="1062" y="520" width="116" height="10" rx="5" fill="#00754A" opacity="0.18"/><path d="M1162 539 C1160 508 1192 507 1190 539 Z" fill="#80634E" opacity="0.8"/><rect x="760" y="90" width="170" height="96" rx="18" fill="#fff" stroke="#D9D4CA"/><rect x="782" y="114" width="82" height="12" rx="6" fill="#1E3932" opacity="0.18"/><rect x="782" y="140" width="116" height="10" rx="5" fill="#00754A" opacity="0.18"/><path d="M882 159 C880 128 912 127 910 159 Z" fill="#80634E" opacity="0.8"/><path d="M755 210 C805 260 835 280 875 318" stroke="#00754A" stroke-width="5" fill="none" opacity="0.55"/><path d="M780 493 C820 440 860 398 894 368" stroke="#00754A" stroke-width="5" fill="none" opacity="0.55"/><path d="M1015 210 C980 255 950 290 925 320" stroke="#00754A" stroke-width="5" fill="none" opacity="0.55"/><path d="M1040 505 C995 445 960 400 925 363" stroke="#00754A" stroke-width="5" fill="none" opacity="0.55"/></svg>