<svg xmlns="http://www.w3.org/2000/svg" width="1280" height="720"><rect width="1280" height="720" fill="#F2F0EB"/><rect x="635" y="170" width="470" height="315" rx="36" fill="#FFFFFF" stroke="#D9D4CA"/><rect x="690" y="230" width="360" height="28" rx="14" fill="#1E3932" opacity="0.18"/><rect x="690" y="298" width="95" height="68" rx="16" fill="#D4E9E2"/><rect x="808" y="298" width="95" height="68" rx="16" fill="#D4E9E2"/><rect x="926" y="298" width="95" height="68" rx="16" fill="#D4E9E2"/><path d="M620 540 C705 500 835 508 945 540" fill="none" stroke="#1E3932" stroke-width="18" opacity="0.18"/><circle cx="720" cy="520" r="42" fill="#D8BFA8"/><circle cx="910" cy="520" r="42" fill="#C9A892"/><rect x="770" y="500" width="120" height="50" rx="22" fill="#1E3932" opacity="0.28"/><path d="M1010 460 C1008 405 1065 390 1078 460 Z" fill="#7C604B" opacity="0.82"/><path d="M1030 460 C1035 415 1062 415 1065 460" stroke="#463227" stroke-width="10" fill="none"/></svg>